<?xml version="1.0" encoding="utf-8"?>
<svg viewBox="164.464 4.199 736.499 317.337" xmlns="http://www.w3.org/2000/svg" xmlns:bx="https://boxy-svg.com">
  <path d="M 447.65 26.287 L 646.002 26.287 L 644.462 29.598 L 604.653 99.36 C 601.342 105.058 598.031 105.135 594.643 99.36 C 587.79 87.502 580.783 75.721 574.238 63.709 C 572.39 60.398 570.388 59.166 566.692 59.474 C 562.611 59.782 558.53 59.474 553.602 59.474 L 555.681 63.478 C 566.307 81.881 576.933 100.361 587.713 118.687 C 589.715 122.075 589.715 124.847 587.713 128.235 C 574.777 150.257 562.072 172.356 549.367 194.455 C 548.674 195.533 548.289 196.996 547.288 197.612 C 546.056 198.459 544.208 199.306 542.899 198.998 C 541.59 198.613 540.435 196.996 539.819 195.61 C 539.28 194.532 539.588 193.069 539.588 191.76 L 539.588 83.19 C 539.588 76.029 540.358 75.259 547.442 75.259 L 552.37 75.259 C 549.29 69.869 546.595 65.095 543.746 60.475 C 543.361 59.859 541.975 59.551 541.051 59.551 L 522.186 59.551 C 521.185 59.628 519.722 60.321 519.106 61.245 C 516.411 65.557 513.947 70.023 510.944 75.259 L 517.412 75.259 C 522.494 75.259 523.803 76.645 523.803 81.727 L 523.803 188.757 C 523.803 190.374 523.726 192.068 523.803 193.685 C 523.803 196.226 523.264 198.382 520.569 199.075 C 517.874 199.845 516.257 198.305 514.948 196.149 L 493.234 158.496 C 487.228 148.024 481.299 137.552 475.139 127.234 C 473.599 124.539 473.599 122.383 475.139 119.765 C 485.919 101.285 496.545 82.651 507.248 64.094 L 509.789 59.551 C 503.706 59.551 498.393 59.397 493.08 59.705 C 492.079 59.705 490.77 61.168 490.154 62.246 L 468.748 99.206 C 465.514 104.75 462.28 104.75 458.969 99.129 L 419.006 29.829 L 417.235 26.287 L 447.65 26.287 M 597.954 61.091 C 595.798 64.787 593.642 68.406 591.64 72.102 C 591.178 73.026 590.639 74.489 591.024 75.259 C 593.642 80.264 596.568 85.115 599.648 90.428 C 610.428 71.717 620.669 53.622 631.218 35.142 L 539.434 35.142 C 542.052 39.762 544.516 43.612 546.672 47.847 C 547.827 50.157 549.29 50.773 551.754 50.773 L 603.96 50.773 L 598.031 61.091 M 508.865 50.696 C 511.175 50.388 514.563 50.773 515.564 49.464 C 518.798 45.152 521.185 40.224 524.034 35.219 L 432.096 35.219 L 463.82 90.12 C 466.669 85.192 468.979 80.88 471.52 76.799 C 472.829 74.874 472.521 73.411 471.443 71.64 C 467.978 65.942 464.744 60.09 461.433 54.315 C 460.817 53.314 460.355 52.236 459.585 50.696 L 508.711 50.696 M 564.921 118.225 L 549.906 144.174 C 549.367 145.175 548.443 146.253 548.443 147.254 L 548.443 177.284 L 549.367 176.745 L 579.166 125.155 C 579.628 124.385 579.705 122.845 579.243 122.075 C 576.702 117.378 574.007 112.835 571.004 107.676 C 568.925 111.372 567.077 114.606 564.844 118.225 M 504.938 161.345 L 514.024 176.976 C 514.871 167.12 514.948 157.649 514.794 148.178 C 514.794 146.869 514.024 145.483 513.254 144.328 C 507.71 134.472 502.089 124.77 496.468 114.991 L 492.156 107.676 C 489.615 112.142 487.536 116.069 485.072 119.765 C 483.455 122.306 483.378 124.308 484.995 127.003 C 491.694 138.168 498.085 149.564 504.938 161.422 M 553.14 121.074 L 559.146 110.833 C 561.379 106.829 565.306 102.748 565.306 98.744 C 565.229 94.74 561.225 90.736 558.992 86.732 C 558.684 86.27 558.53 85.731 558.222 85.423 C 557.452 84.884 556.682 84.268 555.912 84.268 C 553.602 84.114 551.215 84.191 548.597 84.191 L 548.597 128.851 L 553.217 121.151 M 514.871 104.057 L 514.871 84.653 C 506.247 83.267 506.247 83.267 502.32 90.043 C 501.088 92.199 499.548 94.201 498.701 96.434 C 498.162 97.897 498.008 99.976 498.701 101.208 C 501.781 107.137 505.246 112.835 508.557 118.61 L 514.101 128.004 L 514.871 127.773 L 514.871 104.057 M 534.121 43.689 L 531.58 39.377 L 525.112 50.542 L 538.048 50.542 L 534.198 43.689 M 476.14 62.477 L 478.219 65.557 L 481.376 59.628 L 474.754 59.628 L 476.14 62.477 M 587.251 59.551 L 581.861 59.551 L 585.48 65.942 C 586.481 63.401 587.174 61.63 587.251 59.551 Z" style="stroke: none; stroke-dasharray: none; stroke-linecap: butt; stroke-dashoffset: 0; stroke-linejoin: miter; stroke-miterlimit: 4; fill: rgb(247, 204, 48); fill-rule: nonzero; opacity: 1; paint-order: fill;" vector-effect="non-scaling-stroke" bx:origin="0.416 0.512"/>
  <g transform="matrix(1, 0, 0, 1, -109.53602, 155.389956)">
    <path d="M 884.016 105.898 L 899.727 105.898 C 901.776 105.898 903.962 105.898 905.738 106.793 C 916.12 112.16 911.749 124.325 912.295 133.986 C 912.705 141.5 909.426 146.688 903.415 146.867 C 891.12 147.225 878.825 147.404 866.53 146.867 C 859.289 146.509 857.24 141.5 858.06 127.903 L 868.715 125.399 L 869.672 133.986 L 900.137 133.986 L 900.137 116.99 L 873.224 116.99 C 859.153 116.99 851.912 101.426 858.879 85.146 C 860.109 82.105 863.797 79.421 866.53 79.242 C 878.825 78.705 891.12 78.705 903.415 79.242 C 910.246 79.242 912.568 85.504 912.432 94.807 L 901.503 97.669 L 899.727 90.871 L 869.672 90.871 L 869.672 105.72 L 884.016 105.72 L 884.016 105.898 Z" style="stroke: none; stroke-width: 1; stroke-dasharray: none; stroke-linecap: butt; stroke-dashoffset: 0; stroke-linejoin: miter; stroke-miterlimit: 4; fill-rule: nonzero; opacity: 1; fill: rgb(238, 238, 238);" vector-effect="non-scaling-stroke"/>
    <path d="M 831.995 116.99 C 827.487 118.779 823.389 120.032 819.29 121.284 L 838.143 144.183 C 829.4 147.761 822.159 149.55 816.695 139.174 C 814.372 134.881 810.82 131.839 808.361 127.546 C 804.263 120.389 799.208 118.779 792.378 120.926 L 792.378 147.046 L 780.765 147.046 L 780.765 79.063 C 796.613 79.063 812.46 79.063 828.17 79.421 C 830.219 79.421 833.635 82.283 833.908 84.788 C 835.821 95.164 837.597 106.256 832.132 116.811 M 798.798 90.334 L 792.651 90.692 L 792.651 108.582 L 817.241 108.582 C 821.749 108.582 823.799 106.077 823.799 99.995 C 823.799 93.733 822.296 90.334 817.241 90.334 L 798.798 90.334 Z" style="stroke: none; stroke-width: 1; stroke-dasharray: none; stroke-linecap: butt; stroke-dashoffset: 0; stroke-linejoin: miter; stroke-miterlimit: 4; fill-rule: nonzero; opacity: 1; fill: rgb(238, 238, 238);" vector-effect="non-scaling-stroke"/>
    <path d="M 416.563 144.72 C 416.016 145.972 415.606 147.046 415.06 147.046 L 364.923 147.046 L 364.923 79.242 L 415.47 79.242 L 415.47 90.155 L 377.081 90.155 L 377.081 105.541 L 402.491 105.541 L 402.491 116.99 L 376.535 116.99 L 376.535 134.344 L 416.563 134.344 L 416.563 144.72 Z" style="stroke: none; stroke-width: 1; stroke-dasharray: none; stroke-linecap: butt; stroke-dashoffset: 0; stroke-linejoin: miter; stroke-miterlimit: 4; fill-rule: nonzero; opacity: 1; fill: rgb(238, 238, 238);" vector-effect="non-scaling-stroke"/>
    <path d="M 975.655 90.692 L 950.108 90.692 L 950.108 105.541 L 975.655 105.541 L 975.655 116.99 L 949.698 116.99 L 949.698 134.344 L 989.316 134.344 L 989.316 146.867 L 937.949 146.867 L 937.949 79.063 L 988.633 79.063 L 988.633 90.513 L 975.655 90.513 L 975.655 90.692 Z" style="stroke: none; stroke-width: 1; stroke-dasharray: none; stroke-linecap: butt; stroke-dashoffset: 0; stroke-linejoin: miter; stroke-miterlimit: 4; fill-rule: nonzero; opacity: 1; fill: rgb(238, 238, 238);" vector-effect="non-scaling-stroke"/>
    <path d="M 468.173 147.046 C 461.07 147.046 454.785 147.404 448.365 147.046 C 441.397 146.688 438.392 142.752 438.255 133.628 L 438.255 91.586 C 438.255 83.894 441.534 79.063 447.545 79.063 C 459.567 78.705 471.589 78.526 483.611 79.063 C 491.808 79.421 493.584 84.43 492.627 100.174 L 481.698 102.678 C 481.562 98.742 481.288 95.343 480.879 91.229 L 450.687 91.229 L 450.687 134.165 L 481.152 134.165 L 481.562 120.747 L 492.9 122.715 L 492.9 134.344 C 492.9 142.752 489.349 146.867 483.201 147.046 C 478.419 147.404 473.638 147.046 468.173 147.046 Z" style="stroke: none; stroke-width: 1; stroke-dasharray: none; stroke-linecap: butt; stroke-dashoffset: 0; stroke-linejoin: miter; stroke-miterlimit: 4; fill-rule: nonzero; opacity: 1; fill: rgb(238, 238, 238);" vector-effect="non-scaling-stroke"/>
    <path d="M 517.462 95.164 L 517.462 79.063 L 529.484 79.063 L 529.484 105.183 L 565.14 105.183 L 565.14 79.242 L 577.299 79.242 L 577.299 146.688 L 565.686 146.688 L 565.686 117.348 L 529.62 117.348 L 529.62 146.688 L 517.598 146.688 L 517.598 95.343 L 517.462 95.164 Z" style="stroke: none; stroke-width: 1; stroke-dasharray: none; stroke-linecap: butt; stroke-dashoffset: 0; stroke-linejoin: miter; stroke-miterlimit: 4; fill-rule: nonzero; opacity: 1; fill: rgb(238, 238, 238);" vector-effect="non-scaling-stroke"/>
    <path d="M 726.969 105.898 L 745.275 105.898 L 745.685 116.633 L 719.318 116.633 L 719.318 134.523 L 758.8 134.523 L 758.8 146.509 L 707.57 146.509 L 707.57 79.063 L 757.707 79.063 L 757.707 90.334 L 719.182 90.334 L 719.182 105.72 L 726.969 105.72 L 726.969 105.898 Z" style="stroke: none; stroke-width: 1; stroke-dasharray: none; stroke-linecap: butt; stroke-dashoffset: 0; stroke-linejoin: miter; stroke-miterlimit: 4; fill-rule: nonzero; opacity: 1; fill: rgb(238, 238, 238);" vector-effect="non-scaling-stroke"/>
    <path d="M 677.407 116.99 C 673.992 125.935 670.85 134.523 667.434 142.931 C 664.975 149.193 658.964 149.193 656.505 142.931 C 647.625 122.178 639.155 101.247 630.549 80.316 C 639.702 76.38 641.888 77.274 646.123 87.472 L 662.243 126.472 L 676.861 88.366 C 680.959 77.632 680.959 77.632 691.478 79.779 L 677.407 116.99 Z" style="stroke: none; stroke-width: 1; stroke-dasharray: none; stroke-linecap: butt; stroke-dashoffset: 0; stroke-linejoin: miter; stroke-miterlimit: 4; fill-rule: nonzero; opacity: 1; fill: rgb(238, 238, 238);" vector-effect="non-scaling-stroke"/>
    <path d="M 327.354 120.211 L 327.354 146.509 L 315.332 146.509 L 315.332 90.692 L 292.381 90.692 L 292.381 79.063 L 350.168 79.063 L 350.168 90.155 L 327.354 90.155 L 327.354 120.211 Z" style="stroke: none; stroke-width: 1; stroke-dasharray: none; stroke-linecap: butt; stroke-dashoffset: 0; stroke-linejoin: miter; stroke-miterlimit: 4; fill-rule: nonzero; opacity: 1; fill: rgb(238, 238, 238);" vector-effect="non-scaling-stroke"/>
  </g>
</svg>